<svg height="512pt" viewBox="-10 0 512 512" width="512pt" xmlns="http://www.w3.org/2000/svg"><path d="m245.671875 0-22.5 45 22.5 45c24.855469 0 45-20.148438 45-45s-20.144531-45-45-45zm0 0" fill="#163f69"/><path d="m200.671875 45c0 24.851562 20.148437 45 45 45v-90c-24.851563 0-45 20.148438-45 45zm0 0" fill="#085aae"/><path d="m166.648438 85.296875c0 24.851563-20.144532 45-45 45-24.851563 0-45-20.148437-45-45s20.148437-45 45-45c24.855468 0 45 20.148437 45 45zm0 0" fill="#0a77e8"/><path d="m90 190.796875c0 24.851563-20.148438 45-45 45s-45-20.148437-45-45 20.148438-45 45-45 45 20.148437 45 45zm0 0" fill="#0f9af0"/><path d="m90 321.203125c0 24.851563-20.148438 45-45 45s-45-20.148437-45-45 20.148438-45 45-45 45 20.148437 45 45zm0 0" fill="#0f9af0"/><path d="m166.648438 426.703125c0 24.851563-20.144532 45-45 45-24.851563 0-45-20.148437-45-45s20.148437-45 45-45c24.855468 0 45 20.148437 45 45zm0 0" fill="#13bdf7"/><path d="m245.671875 422-22.5 45 22.5 45c24.855469 0 45-20.148438 45-45s-20.144531-45-45-45zm0 0" fill="#13bdf7"/><path d="m200.671875 467c0 24.851562 20.148437 45 45 45v-90c-24.851563 0-45 20.148438-45 45zm0 0" fill="#18e0ff"/><path d="m414.695312 426.703125c0 24.851563-20.148437 45-45 45-24.851562 0-45-20.148437-45-45s20.148438-45 45-45c24.851563 0 45 20.148437 45 45zm0 0" fill="#18e0ff"/><path d="m491.347656 321.203125c0 24.851563-20.148437 45-45 45-24.855468 0-45-20.148437-45-45s20.144532-45 45-45c24.851563 0 45 20.148437 45 45zm0 0" fill="#65eaff"/><path d="m491.347656 190.796875c0 24.851563-20.148437 45-45 45-24.855468 0-45-20.148437-45-45s20.144532-45 45-45c24.851563 0 45 20.148437 45 45zm0 0" fill="#b2f5ff"/></svg>